<svg width="17" height="24" viewBox="0 0 17 24" fill="none" xmlns="http://www.w3.org/2000/svg">
<g id="Icon" clip-path="url(#clip0_1_23)">
<path id="Vector" d="M6.96625 5.34375C5.77875 5.34375 4.67458 5.64062 3.65375 6.23438C2.63291 6.82812 1.82562 7.63021 1.23187 8.64062C0.638123 9.65104 0.341248 10.75 0.341248 11.9375C0.341248 13.125 0.643331 14.2292 1.2475 15.25L0.309998 18.6562L3.81 17.75C4.78916 18.2917 5.84125 18.5625 6.96625 18.5625C8.15375 18.5625 9.25271 18.2656 10.2631 17.6719C11.2735 17.0781 12.0756 16.276 12.6694 15.2656C13.2631 14.2552 13.56 13.1458 13.56 11.9375C13.56 11.0625 13.3933 10.224 13.06 9.42188C12.7267 8.61979 12.2527 7.90625 11.6381 7.28125C11.0235 6.65625 10.31 6.17708 9.4975 5.84375C8.685 5.51042 7.84125 5.34375 6.96625 5.34375ZM6.96625 6.4375C7.69541 6.4375 8.39333 6.57812 9.06 6.85938C9.72666 7.14062 10.3204 7.54167 10.8412 8.0625C11.3621 8.58333 11.7631 9.17708 12.0444 9.84375C12.3256 10.5104 12.4662 11.2083 12.4662 11.9375C12.4662 12.9375 12.2162 13.8594 11.7162 14.7031C11.2162 15.5469 10.5444 16.2135 9.70062 16.7031C8.85687 17.1927 7.935 17.4375 6.935 17.4375C5.935 17.4375 5.00791 17.1771 4.15375 16.6562L3.96625 16.5625L1.90375 17.0938L2.435 15.0625L2.31 14.875C1.7475 13.9792 1.46625 13 1.46625 11.9375C1.46625 10.9375 1.71625 10.0208 2.21625 9.1875C2.71625 8.35417 3.38291 7.6875 4.21625 7.1875C5.04958 6.6875 5.96625 6.4375 6.96625 6.4375ZM4.6225 8.875C4.45583 8.875 4.31 8.94792 4.185 9.09375L4.15375 9.125C3.77875 9.52083 3.59125 9.96875 3.59125 10.4688C3.59125 10.9688 3.81 11.5208 4.2475 12.125L4.31 12.25C5.16416 13.4375 6.09125 14.2396 7.09125 14.6562C7.38291 14.8021 7.69021 14.9219 8.01312 15.0156C8.33604 15.1094 8.69541 15.1354 9.09125 15.0938C9.25791 15.0521 9.46625 14.9531 9.71625 14.7969C9.96625 14.6406 10.1225 14.474 10.185 14.2969C10.2475 14.1198 10.2892 13.9583 10.31 13.8125C10.3308 13.6667 10.3256 13.5729 10.2944 13.5312C10.2631 13.4896 10.1746 13.4271 10.0287 13.3438L9.40375 13.0312C9.11208 12.8854 8.92458 12.8021 8.84125 12.7812C8.75791 12.7604 8.69021 12.75 8.63812 12.75C8.58604 12.75 8.52875 12.7917 8.46625 12.875C8.38291 13 8.21625 13.2083 7.96625 13.5C7.86208 13.6042 7.73708 13.625 7.59125 13.5625L7.4975 13.5C7.01833 13.3125 6.61208 13.0625 6.27875 12.75C5.94541 12.4375 5.63291 12.0521 5.34125 11.5938C5.27875 11.4688 5.29958 11.3542 5.40375 11.25C5.50791 11.1458 5.59125 11.0573 5.65375 10.9844C5.71625 10.9115 5.76833 10.8333 5.81 10.75L5.84125 10.6875C5.88291 10.6042 5.8725 10.5104 5.81 10.4062L5.31 9.1875C5.2475 9.0625 5.19541 8.98438 5.15375 8.95312C5.11208 8.92188 5.04958 8.90625 4.96625 8.90625L4.6225 8.875Z" fill="white" fill-opacity="0.996"/>
</g>
<defs>
<clipPath id="clip0_1_23">
<rect width="16" height="24" fill="white" transform="matrix(1 0 0 -1 0.309998 24)"/>
</clipPath>
</defs>
</svg>
